<?xml version="1.0" encoding="UTF-8"?>
<svg xmlns="http://www.w3.org/2000/svg" width="1600" height="1150" viewBox="0 0 1600 1150" font-family="Arial, sans-serif">
<defs>
  <!-- solid arrow for include/extend -->
  <marker id="open-end" markerWidth="12" markerHeight="8" refX="10" refY="4" orient="auto">
    <polyline points="0 0, 10 4, 0 8" fill="none" stroke="#333" stroke-width="1.5"/>
  </marker>
  <!-- hollow triangle for generalization -->
  <marker id="gen-end" markerWidth="14" markerHeight="10" refX="13" refY="5" orient="auto">
    <polygon points="0 0, 13 5, 0 10" fill="white" stroke="#333" stroke-width="1.5"/>
  </marker>
</defs>
<rect width="1600" height="1150" fill="white"/>
<rect x="290" y="35" width="1110" height="1090" fill="none" stroke="#333" stroke-width="2"/>
<text x="845" y="28" text-anchor="middle" font-size="15" font-weight="bold" fill="#333">Микроблогинг-платформа</text>
<text x="310" y="70" font-size="11" fill="#999" font-style="italic">Аутентификация</text>
<text x="310" y="310" font-size="11" fill="#999" font-style="italic">Посты и медиа</text>
<text x="310" y="610" font-size="11" fill="#999" font-style="italic">Комментарии</text>
<text x="310" y="870" font-size="11" fill="#999" font-style="italic">Социальные функции</text>
<text x="1000" y="310" font-size="11" fill="#999" font-style="italic">Системные use cases</text>
<circle cx="145" cy="180" r="18" fill="none" stroke="#333" stroke-width="1.8"/>
<line x1="145" y1="198" x2="145" y2="238" stroke="#333" stroke-width="1.8"/>
<line x1="120" y1="213" x2="170" y2="213" stroke="#333" stroke-width="1.8"/>
<line x1="145" y1="238" x2="125" y2="263" stroke="#333" stroke-width="1.8"/>
<line x1="145" y1="238" x2="165" y2="263" stroke="#333" stroke-width="1.8"/>
<text x="145" y="283" text-anchor="middle" font-size="13" font-weight="bold" fill="#333">Гость</text>
<circle cx="145" cy="700" r="18" fill="none" stroke="#333" stroke-width="1.8"/>
<line x1="145" y1="718" x2="145" y2="758" stroke="#333" stroke-width="1.8"/>
<line x1="120" y1="733" x2="170" y2="733" stroke="#333" stroke-width="1.8"/>
<line x1="145" y1="758" x2="125" y2="783" stroke="#333" stroke-width="1.8"/>
<line x1="145" y1="758" x2="165" y2="783" stroke="#333" stroke-width="1.8"/>
<text x="145" y="803" text-anchor="middle" font-size="13" font-weight="bold" fill="#333">Авторизованный</text>
<text x="145" y="819" text-anchor="middle" font-size="13" font-weight="bold" fill="#333">пользователь</text>
<line x1="145" y1="682" x2="145" y2="283" stroke="#333" stroke-width="1.5" marker-end="url(#gen-end)"/>
<ellipse cx="520" cy="105" rx="105" ry="26" fill="white" stroke="#333" stroke-width="1.6"/>
<text x="520" y="110" text-anchor="middle" font-size="12" fill="#222">Регистрация</text>
<ellipse cx="520" cy="185" rx="105" ry="26" fill="white" stroke="#333" stroke-width="1.6"/>
<text x="520" y="190" text-anchor="middle" font-size="12" fill="#222">Авторизация</text>
<ellipse cx="800" cy="105" rx="105" ry="26" fill="white" stroke="#333" stroke-width="1.6"/>
<text x="800" y="110" text-anchor="middle" font-size="12" fill="#222">Просмотр профиля</text>
<ellipse cx="800" cy="185" rx="105" ry="26" fill="white" stroke="#333" stroke-width="1.6"/>
<text x="800" y="190" text-anchor="middle" font-size="12" fill="#222">Обновление профиля</text>
<ellipse cx="800" cy="265" rx="105" ry="26" fill="white" stroke="#333" stroke-width="1.6"/>
<text x="800" y="270" text-anchor="middle" font-size="12" fill="#222">Поиск пользователей</text>
<ellipse cx="520" cy="380" rx="105" ry="26" fill="white" stroke="#333" stroke-width="1.6"/>
<text x="520" y="385" text-anchor="middle" font-size="12" fill="#222">Создание поста</text>
<ellipse cx="520" cy="460" rx="105" ry="26" fill="white" stroke="#333" stroke-width="1.6"/>
<text x="520" y="465" text-anchor="middle" font-size="12" fill="#222">Удаление поста</text>
<ellipse cx="520" cy="540" rx="105" ry="26" fill="white" stroke="#333" stroke-width="1.6"/>
<text x="520" y="545" text-anchor="middle" font-size="12" fill="#222">Лайк поста</text>
<ellipse cx="800" cy="380" rx="105" ry="26" fill="white" stroke="#333" stroke-width="1.6"/>
<text x="800" y="385" text-anchor="middle" font-size="12" fill="#222">Получение ленты</text>
<ellipse cx="800" cy="460" rx="105" ry="26" fill="white" stroke="#333" stroke-width="1.6"/>
<text x="800" y="465" text-anchor="middle" font-size="12" fill="#222">Просмотр поста</text>
<ellipse cx="800" cy="540" rx="105" ry="26" fill="white" stroke="#333" stroke-width="1.6"/>
<text x="800" y="545" text-anchor="middle" font-size="12" fill="#222">Загрузка медиа</text>
<ellipse cx="1130" cy="430" rx="105" ry="26" fill="white" stroke="#333" stroke-width="1.6"/>
<text x="1130" y="435" text-anchor="middle" font-size="12" fill="#222">Валидация данных</text>
<ellipse cx="1130" cy="540" rx="105" ry="26" fill="white" stroke="#333" stroke-width="1.6"/>
<text x="1130" y="535" text-anchor="middle" font-size="12" fill="#222">Live-уведомление</text>
<text x="1130" y="551" text-anchor="middle" font-size="12" fill="#222">(WebSocket)</text>
<ellipse cx="520" cy="680" rx="90" ry="26" fill="white" stroke="#333" stroke-width="1.6"/>
<text x="520" y="675" text-anchor="middle" font-size="12" fill="#222">Создание</text>
<text x="520" y="691" text-anchor="middle" font-size="12" fill="#222">комментария</text>
<ellipse cx="520" cy="760" rx="90" ry="26" fill="white" stroke="#333" stroke-width="1.6"/>
<text x="520" y="755" text-anchor="middle" font-size="12" fill="#222">Удаление</text>
<text x="520" y="771" text-anchor="middle" font-size="12" fill="#222">комментария</text>
<ellipse cx="520" cy="840" rx="100" ry="26" fill="white" stroke="#333" stroke-width="1.6"/>
<text x="520" y="845" text-anchor="middle" font-size="12" fill="#222">Лайк комментария</text>
<ellipse cx="800" cy="680" rx="90" ry="26" fill="white" stroke="#333" stroke-width="1.6"/>
<text x="800" y="675" text-anchor="middle" font-size="12" fill="#222">Просмотр</text>
<text x="800" y="691" text-anchor="middle" font-size="12" fill="#222">комментариев</text>
<ellipse cx="520" cy="970" rx="105" ry="26" fill="white" stroke="#333" stroke-width="1.6"/>
<text x="520" y="975" text-anchor="middle" font-size="12" fill="#222">Подписка</text>
<ellipse cx="800" cy="970" rx="105" ry="26" fill="white" stroke="#333" stroke-width="1.6"/>
<text x="800" y="975" text-anchor="middle" font-size="12" fill="#222">Отписка</text>
<ellipse cx="1480" cy="430" rx="85" ry="26" fill="white" stroke="#333" stroke-width="1.6"/>
<text x="1480" y="425" text-anchor="middle" font-size="12" fill="#222">Сообщение</text>
<text x="1480" y="441" text-anchor="middle" font-size="12" fill="#222">об ошибке</text>
<line x1="145" y1="235" x2="417.0390290524534" y2="110.09901951359278" stroke="#555" stroke-width="1.3"/>
<line x1="145" y1="235" x2="415.0093320890732" y2="184.65336414404013" stroke="#555" stroke-width="1.3"/>
<line x1="145" y1="235" x2="695.6816385037308" y2="107.95777251788768" stroke="#555" stroke-width="1.3"/>
<line x1="145" y1="235" x2="703.4516916323876" y2="449.78012817279216" stroke="#555" stroke-width="1.3"/>
<line x1="145" y1="235" x2="695.8731143774309" y2="261.6540106546583" stroke="#555" stroke-width="1.3"/>
<line x1="145" y1="755" x2="717.4584433730518" y2="201.07024999250945" stroke="#555" stroke-width="1.3"/>
<line x1="145" y1="755" x2="440.1279022384978" y2="396.877101038113" stroke="#555" stroke-width="1.3"/>
<line x1="145" y1="755" x2="431.56150293054134" y2="474.0153961070076" stroke="#555" stroke-width="1.3"/>
<line x1="145" y1="755" x2="423.42329235152204" y2="550.2034058112424" stroke="#555" stroke-width="1.3"/>
<line x1="145" y1="755" x2="705.6570160195531" y2="391.4130661827309" stroke="#555" stroke-width="1.3"/>
<line x1="145" y1="755" x2="697.9991144970427" y2="546.1697373128652" stroke="#555" stroke-width="1.3"/>
<line x1="145" y1="755" x2="415.1490155088282" y2="681.3846987158199" stroke="#555" stroke-width="1.3"/>
<line x1="145" y1="755" x2="416.31873364874593" y2="755.8922469712265" stroke="#555" stroke-width="1.3"/>
<line x1="145" y1="755" x2="421.63164095362754" y2="830.9063916970465" stroke="#555" stroke-width="1.3"/>
<line x1="145" y1="755" x2="434.78889414759306" y2="954.808077128028" stroke="#555" stroke-width="1.3"/>
<line x1="145" y1="755" x2="702.9241537339173" y2="960.0912767606267" stroke="#555" stroke-width="1.3"/>
<line x1="625" y1="105" x2="1025" y2="422" stroke="#333" stroke-width="1.3" stroke-dasharray="6,4" marker-end="url(#open-end)"/>
<text x="825.0" y="257.5" text-anchor="middle" font-size="11" fill="#555">«include»</text>
<line x1="625" y1="185" x2="1025" y2="428" stroke="#333" stroke-width="1.3" stroke-dasharray="6,4" marker-end="url(#open-end)"/>
<text x="825.0" y="300.5" text-anchor="middle" font-size="11" fill="#555">«include»</text>
<line x1="625" y1="380" x2="1025" y2="436" stroke="#333" stroke-width="1.3" stroke-dasharray="6,4" marker-end="url(#open-end)"/>
<text x="825.0" y="402.0" text-anchor="middle" font-size="11" fill="#555">«include»</text>
<line x1="610" y1="680" x2="1025" y2="444" stroke="#333" stroke-width="1.3" stroke-dasharray="6,4" marker-end="url(#open-end)"/>
<text x="817.5" y="556.0" text-anchor="middle" font-size="11" fill="#555">«include»</text>
<line x1="905" y1="540" x2="1025" y2="450" stroke="#333" stroke-width="1.3" stroke-dasharray="6,4" marker-end="url(#open-end)"/>
<text x="965.0" y="489.0" text-anchor="middle" font-size="11" fill="#555">«include»</text>
<line x1="625" y1="388" x2="1025" y2="535" stroke="#333" stroke-width="1.3" stroke-dasharray="6,4" marker-end="url(#open-end)"/>
<text x="825.0" y="455.5" text-anchor="middle" font-size="11" fill="#555">«include»</text>
<line x1="1395" y1="430" x2="1235" y2="430" stroke="#333" stroke-width="1.3" stroke-dasharray="6,4" marker-end="url(#open-end)"/>
<text x="1315.0" y="424.0" text-anchor="middle" font-size="11" fill="#555">«extend»</text>
</svg>